<?xml version="1.0" standalone="no"?>
<!DOCTYPE svg PUBLIC "-//W3C//DTD SVG 20010904//EN"
 "http://www.w3.org/TR/2001/REC-SVG-20010904/DTD/svg10.dtd">
<svg version="1.0" xmlns="http://www.w3.org/2000/svg"
 width="200.000000pt" height="200.000000pt" viewBox="0 0 200.000000 200.000000"
 preserveAspectRatio="xMidYMid meet">
<metadata>
Created by potrace 1.16, written by Peter Selinger 2001-2019
</metadata>
<g transform="translate(0.000000,200.000000) scale(0.100000,-0.100000)"
fill="#000000" stroke="none">
<path d="M366 1354 c-66 -21 -137 -93 -161 -163 -21 -65 -16 -140 13 -198 20
-38 86 -106 112 -115 10 -3 9 -11 -4 -35 -9 -18 -16 -34 -16 -38 0 -3 23 -5
51 -5 l51 0 -42 -77 -42 -78 125 120 c69 66 146 137 171 158 49 42 86 120 86
181 0 109 -77 216 -179 249 -64 20 -100 21 -165 1z"/>
<path d="M790 1293 c0 -5 -6 -41 -14 -80 -13 -69 -13 -73 5 -73 13 0 20 12 27
43 9 36 11 39 17 20 4 -13 13 -23 21 -23 7 0 20 10 30 23 16 21 16 21 10 -20
-5 -38 -4 -43 12 -43 16 0 21 12 31 69 14 90 14 91 -6 91 -10 0 -29 -17 -42
-38 l-25 -37 -14 38 c-10 24 -21 37 -33 37 -11 0 -19 -3 -19 -7z"/>
<path d="M977 1293 c-3 -5 -8 -30 -11 -58 -4 -27 -10 -60 -13 -72 -5 -21 -2
-23 36 -23 59 0 91 33 91 94 0 35 -5 48 -19 56 -23 12 -78 14 -84 3z"/>
<path d="M1250 1282 c-18 -14 -24 -32 -28 -75 -4 -54 -3 -56 22 -63 61 -15 97
21 99 101 2 55 -47 74 -93 37z"/>
</g>
</svg>
